<svg width="172" height="50" viewBox="0 0 172 50" fill="none" xmlns="http://www.w3.org/2000/svg">
<path d="M170.476 44.2337C170.476 46.8983 168.294 49.0566 165.594 49.0566H5.84018C3.14215 49.0566 0.952148 46.8983 0.952148 44.2337V5.7726C0.952148 3.1093 3.14215 0.943398 5.84018 0.943398H165.593C168.294 0.943398 170.475 3.1093 170.475 5.7726L170.476 44.2337Z" fill="white"/>
<path d="M165.079 1.00156C168.019 1.00156 170.411 3.35625 170.411 6.25V43.75C170.411 46.6438 168.019 48.9984 165.079 48.9984H6.34921C3.40952 48.9984 1.01746 46.6438 1.01746 43.75V6.25C1.01746 3.35625 3.40952 1.00156 6.34921 1.00156H165.079ZM165.079 3.8147e-06H6.34921C2.85873 3.8147e-06 0 2.81407 0 6.25V43.75C0 47.1859 2.85873 50 6.34921 50H165.079C168.57 50 171.429 47.1859 171.429 43.75V6.25C171.429 2.81407 168.57 3.8147e-06 165.079 3.8147e-06Z" fill="#A6A6A6"/>
<path d="M38.2577 24.73C38.2209 20.7012 41.6089 18.7412 41.7638 18.65C39.845 15.8962 36.8711 15.52 35.826 15.49C33.3282 15.2312 30.9054 16.9612 29.633 16.9612C28.3352 16.9612 26.3758 15.515 24.2641 15.5575C21.5466 15.5987 19.0044 17.1475 17.6101 19.5525C14.7327 24.4562 16.8787 31.6625 19.6355 35.6262C21.0146 37.5675 22.626 39.735 24.7352 39.6587C26.7987 39.575 27.5695 38.3637 30.0596 38.3637C32.527 38.3637 33.2508 39.6587 35.4019 39.61C37.6165 39.575 39.0108 37.66 40.3416 35.7012C41.9352 33.4762 42.5752 31.285 42.6006 31.1725C42.5485 31.155 38.2997 29.5587 38.2577 24.73Z" fill="black"/>
<path d="M34.1943 12.8825C35.3041 11.5162 36.0635 9.65749 35.8527 7.77124C34.2463 7.84124 32.2374 8.86499 31.0806 10.2012C30.0571 11.3787 29.1428 13.3087 29.379 15.1237C31.1835 15.2562 33.0362 14.2275 34.1943 12.8825Z" fill="black"/>
<path d="M62.2856 12.5113C62.2856 13.9825 61.8373 15.09 60.9421 15.8338C60.1129 16.52 58.9344 16.8638 57.4081 16.8638C56.6513 16.8638 56.0036 16.8313 55.4614 16.7663V8.7275C56.1687 8.615 56.9306 8.5575 57.7535 8.5575C59.2075 8.5575 60.3033 8.86875 61.0424 9.49125C61.8703 10.195 62.2856 11.2013 62.2856 12.5113ZM60.8824 12.5475C60.8824 11.5938 60.6259 10.8625 60.1129 10.3525C59.5998 9.84375 58.8506 9.58875 57.864 9.58875C57.4449 9.58875 57.0881 9.61625 56.7922 9.67375V15.785C56.956 15.81 57.2557 15.8213 57.6913 15.8213C58.7097 15.8213 59.4957 15.5425 60.0494 14.985C60.603 14.4275 60.8824 13.615 60.8824 12.5475Z" fill="black"/>
<path d="M69.7257 13.7963C69.7257 14.7025 69.4628 15.445 68.9371 16.0275C68.386 16.6263 67.6558 16.925 66.7441 16.925C65.8653 16.925 65.1657 16.6388 64.6437 16.0638C64.1231 15.49 63.8628 14.7663 63.8628 13.8938C63.8628 12.9813 64.1307 12.2325 64.6691 11.6513C65.2076 11.07 65.9314 10.7788 66.8431 10.7788C67.7218 10.7788 68.4279 11.065 68.9625 11.6388C69.4704 12.1963 69.7257 12.9163 69.7257 13.7963ZM68.3453 13.8388C68.3453 13.295 68.226 12.8288 67.9885 12.44C67.7091 11.97 67.3117 11.735 66.7949 11.735C66.2603 11.735 65.8539 11.97 65.5745 12.44C65.3358 12.8288 65.2177 13.3025 65.2177 13.8625C65.2177 14.4063 65.3371 14.8725 65.5745 15.2613C65.8628 15.7313 66.2641 15.9663 66.7822 15.9663C67.2901 15.9663 67.6888 15.7275 67.9758 15.2488C68.2222 14.8525 68.3453 14.3825 68.3453 13.8388Z" fill="black"/>
<path d="M79.7013 10.8988L77.8283 16.7913H76.6093L75.8334 14.2325C75.6366 13.5938 75.4766 12.9588 75.3521 12.3288H75.328C75.2124 12.9763 75.0524 13.61 74.8467 14.2325L74.0226 16.7913H72.7896L71.0283 10.8988H72.3959L73.0728 13.7C73.2366 14.3625 73.3712 14.9938 73.4791 15.5912H73.5032C73.6023 15.0988 73.7661 14.4713 73.9972 13.7125L74.8467 10.9H75.9312L76.7451 13.6525C76.942 14.3238 77.102 14.97 77.2251 15.5925H77.262C77.3521 14.9863 77.488 14.34 77.6683 13.6525L78.3947 10.9H79.7013V10.8988Z" fill="black"/>
<path d="M86.6005 16.7913H85.2697V13.4163C85.2697 12.3763 84.8684 11.8563 84.0633 11.8563C83.6684 11.8563 83.3497 11.9988 83.1021 12.285C82.857 12.5713 82.7326 12.9088 82.7326 13.295V16.79H81.4018V12.5825C81.4018 12.065 81.3853 11.5038 81.3535 10.8963H82.523L82.5853 11.8175H82.6221C82.777 11.5313 83.0081 11.295 83.3116 11.1063C83.6722 10.8863 84.076 10.775 84.5179 10.775C85.0767 10.775 85.5414 10.9525 85.911 11.3088C86.3706 11.745 86.6005 12.3963 86.6005 13.2613V16.7913Z" fill="black"/>
<path d="M90.2704 16.7912H88.9409V8.195H90.2704V16.7912Z" fill="black"/>
<path d="M98.105 13.7963C98.105 14.7025 97.8422 15.445 97.3165 16.0275C96.7654 16.6263 96.0339 16.925 95.1235 16.925C94.2435 16.925 93.5438 16.6388 93.0231 16.0638C92.5025 15.49 92.2422 14.7663 92.2422 13.8938C92.2422 12.9813 92.5101 12.2325 93.0485 11.6513C93.587 11.07 94.3108 10.7788 95.2212 10.7788C96.1012 10.7788 96.806 11.065 97.3419 11.6388C97.8498 12.1963 98.105 12.9163 98.105 13.7963ZM96.7235 13.8388C96.7235 13.295 96.6041 12.8288 96.3666 12.44C96.0885 11.97 95.6898 11.735 95.1742 11.735C94.6384 11.735 94.232 11.97 93.9539 12.44C93.7152 12.8288 93.5971 13.3025 93.5971 13.8625C93.5971 14.4063 93.7165 14.8725 93.9539 15.2613C94.2422 15.7313 94.6435 15.9663 95.1616 15.9663C95.6695 15.9663 96.0669 15.7275 96.3539 15.2488C96.6016 14.8525 96.7235 14.3825 96.7235 13.8388Z" fill="black"/>
<path d="M104.546 16.7913H103.351L103.252 16.1125H103.215C102.806 16.6538 102.224 16.925 101.467 16.925C100.902 16.925 100.445 16.7463 100.1 16.3913C99.788 16.0688 99.6318 15.6675 99.6318 15.1913C99.6318 14.4713 99.9366 13.9225 100.55 13.5425C101.162 13.1625 102.023 12.9763 103.132 12.985V12.875C103.132 12.0988 102.718 11.7113 101.888 11.7113C101.298 11.7113 100.777 11.8575 100.328 12.1475L100.057 11.2875C100.613 10.9488 101.3 10.7788 102.111 10.7788C103.675 10.7788 104.46 11.5913 104.46 13.2163V15.3863C104.46 15.975 104.489 16.4438 104.546 16.7913ZM103.165 14.7663V13.8575C101.697 13.8325 100.963 14.2288 100.963 15.045C100.963 15.3525 101.046 15.5825 101.218 15.7363C101.389 15.89 101.608 15.9663 101.868 15.9663C102.16 15.9663 102.433 15.875 102.682 15.6938C102.932 15.5113 103.086 15.28 103.143 14.9963C103.157 14.9325 103.165 14.855 103.165 14.7663Z" fill="black"/>
<path d="M112.108 16.7912H110.927L110.865 15.845H110.828C110.451 16.565 109.808 16.925 108.905 16.925C108.184 16.925 107.583 16.6463 107.107 16.0888C106.631 15.5313 106.394 14.8075 106.394 13.9188C106.394 12.965 106.651 12.1925 107.169 11.6025C107.671 11.0525 108.286 10.7775 109.017 10.7775C109.821 10.7775 110.383 11.0437 110.703 11.5775H110.729V8.195H112.061V15.2038C112.061 15.7775 112.076 16.3062 112.108 16.7912ZM110.729 14.3062V13.3238C110.729 13.1538 110.716 13.0163 110.692 12.9113C110.617 12.5963 110.456 12.3313 110.211 12.1175C109.963 11.9037 109.665 11.7963 109.321 11.7963C108.824 11.7963 108.435 11.99 108.15 12.3787C107.867 12.7675 107.723 13.2637 107.723 13.87C107.723 14.4525 107.859 14.925 108.132 15.2888C108.42 15.6762 108.809 15.87 109.295 15.87C109.732 15.87 110.081 15.7087 110.347 15.385C110.603 15.0862 110.729 14.7262 110.729 14.3062Z" fill="black"/>
<path d="M123.489 13.7963C123.489 14.7025 123.226 15.445 122.701 16.0275C122.15 16.6263 121.421 16.925 120.508 16.925C119.63 16.925 118.931 16.6388 118.407 16.0638C117.887 15.49 117.626 14.7663 117.626 13.8938C117.626 12.9813 117.894 12.2325 118.433 11.6513C118.971 11.07 119.695 10.7788 120.608 10.7788C121.486 10.7788 122.193 11.065 122.726 11.6388C123.234 12.1963 123.489 12.9163 123.489 13.7963ZM122.11 13.8388C122.11 13.295 121.991 12.8288 121.753 12.44C121.473 11.97 121.077 11.735 120.559 11.735C120.025 11.735 119.619 11.97 119.338 12.44C119.099 12.8288 118.981 13.3025 118.981 13.8625C118.981 14.4063 119.101 14.8725 119.338 15.2613C119.626 15.7313 120.028 15.9663 120.546 15.9663C121.054 15.9663 121.454 15.7275 121.741 15.2488C121.986 14.8525 122.11 14.3825 122.11 13.8388Z" fill="black"/>
<path d="M130.645 16.7913H129.316V13.4163C129.316 12.3763 128.914 11.8563 128.108 11.8563C127.713 11.8563 127.394 11.9988 127.148 12.285C126.902 12.5713 126.778 12.9088 126.778 13.295V16.79H125.446V12.5825C125.446 12.065 125.431 11.5038 125.399 10.8963H126.568L126.63 11.8175H126.667C126.823 11.5313 127.054 11.295 127.356 11.1063C127.718 10.8863 128.121 10.775 128.564 10.775C129.121 10.775 129.586 10.9525 129.956 11.3088C130.417 11.745 130.645 12.3963 130.645 13.2613V16.7913Z" fill="black"/>
<path d="M139.601 11.88H138.136V14.7425C138.136 15.47 138.396 15.8338 138.912 15.8338C139.15 15.8338 139.349 15.8138 139.505 15.7725L139.539 16.7663C139.276 16.8638 138.931 16.9125 138.505 16.9125C137.98 16.9125 137.571 16.755 137.275 16.44C136.978 16.125 136.83 15.595 136.83 14.8513V11.88H135.956V10.8988H136.83V9.81876L138.135 9.43126V10.8975H139.6V11.88H139.601Z" fill="black"/>
<path d="M146.646 16.7912H145.314V13.4412C145.314 12.385 144.913 11.8562 144.109 11.8562C143.492 11.8562 143.07 12.1625 142.839 12.775C142.8 12.9037 142.777 13.0612 142.777 13.2462V16.79H141.447V8.195H142.777V11.7462H142.802C143.221 11.1 143.822 10.7775 144.6 10.7775C145.151 10.7775 145.607 10.955 145.969 11.3112C146.42 11.755 146.646 12.415 146.646 13.2875V16.7912Z" fill="black"/>
<path d="M153.914 13.5662C153.914 13.8012 153.896 13.9987 153.864 14.16H149.873C149.891 14.7425 150.081 15.1862 150.451 15.4937C150.789 15.7687 151.224 15.9062 151.758 15.9062C152.348 15.9062 152.886 15.8137 153.371 15.6275L153.58 16.5375C153.012 16.78 152.344 16.9012 151.571 16.9012C150.644 16.9012 149.914 16.6325 149.385 16.095C148.855 15.5575 148.592 14.8362 148.592 13.9312C148.592 13.0425 148.837 12.3025 149.331 11.7125C149.846 11.0825 150.544 10.7675 151.424 10.7675C152.284 10.7675 152.938 11.0825 153.38 11.7125C153.737 12.2125 153.914 12.8312 153.914 13.5662ZM152.644 13.2275C152.654 12.8387 152.566 12.5037 152.386 12.2212C152.155 11.8575 151.803 11.675 151.327 11.675C150.893 11.675 150.538 11.8525 150.268 12.2087C150.047 12.4925 149.916 12.8312 149.873 13.2275H152.644Z" fill="black"/>
<path d="M68.1207 39.38H65.2369L63.6572 34.4937H58.1664L56.6616 39.38H53.854L59.294 22.745H62.654L68.1207 39.38ZM63.181 32.4437L61.7524 28.1C61.6013 27.6562 61.3181 26.6112 60.9004 24.9662H60.8496C60.6832 25.6737 60.4153 26.7187 60.047 28.1L58.6438 32.4437H63.181Z" fill="black"/>
<path d="M82.1106 33.235C82.1106 35.275 81.5506 36.8875 80.4306 38.0713C79.4274 39.125 78.1817 39.6513 76.6947 39.6513C75.0896 39.6513 73.9366 39.0837 73.2344 37.9487H73.1836V44.2675H70.4763V31.3338C70.4763 30.0513 70.442 28.735 70.376 27.385H72.7569L72.908 29.2863H72.9588C73.8617 27.8538 75.2318 27.1388 77.0706 27.1388C78.508 27.1388 79.708 27.6975 80.668 28.8163C81.6306 29.9363 82.1106 31.4088 82.1106 33.235ZM79.3525 33.3325C79.3525 32.165 79.0858 31.2025 78.5499 30.445C77.9645 29.655 77.1785 29.26 76.1931 29.26C75.5252 29.26 74.9182 29.48 74.376 29.9138C73.8325 30.3513 73.4769 30.9225 73.3106 31.63C73.2268 31.96 73.1849 32.23 73.1849 32.4425V34.4425C73.1849 35.315 73.4566 36.0513 74.0001 36.6525C74.5436 37.2538 75.2496 37.5537 76.1182 37.5537C77.1379 37.5537 77.9315 37.1663 78.4992 36.3938C79.068 35.62 79.3525 34.6 79.3525 33.3325Z" fill="black"/>
<path d="M96.1259 33.235C96.1259 35.275 95.5659 36.8875 94.4446 38.0713C93.4427 39.125 92.197 39.6513 90.71 39.6513C89.105 39.6513 87.9519 39.0837 87.251 37.9487H87.2002V44.2675H84.4929V31.3338C84.4929 30.0513 84.4586 28.735 84.3926 27.385H86.7735L86.9246 29.2863H86.9754C87.877 27.8538 89.2472 27.1388 91.0872 27.1388C92.5234 27.1388 93.7234 27.6975 94.6859 28.8163C95.6447 29.9363 96.1259 31.4088 96.1259 33.235ZM93.3678 33.3325C93.3678 32.165 93.0999 31.2025 92.564 30.445C91.9786 29.655 91.1951 29.26 90.2085 29.26C89.5393 29.26 88.9335 29.48 88.39 29.9138C87.8466 30.3513 87.4923 30.9225 87.3259 31.63C87.2434 31.96 87.2002 32.23 87.2002 32.4425V34.4425C87.2002 35.315 87.4719 36.0513 88.0129 36.6525C88.5564 37.2525 89.2624 37.5537 90.1335 37.5537C91.1532 37.5537 91.9469 37.1663 92.5145 36.3938C93.0834 35.62 93.3678 34.6 93.3678 33.3325Z" fill="black"/>
<path d="M111.796 34.715C111.796 36.13 111.297 37.2812 110.295 38.17C109.194 39.1412 107.661 39.6262 105.692 39.6262C103.873 39.6262 102.416 39.2812 101.312 38.59L101.939 36.3687C103.128 37.0762 104.432 37.4312 105.853 37.4312C106.873 37.4312 107.666 37.2037 108.236 36.7512C108.804 36.2987 109.087 35.6912 109.087 34.9337C109.087 34.2587 108.854 33.69 108.385 33.2287C107.919 32.7675 107.141 32.3387 106.054 31.9425C103.095 30.8562 101.617 29.265 101.617 27.1725C101.617 25.805 102.135 24.6837 103.172 23.8112C104.206 22.9375 105.585 22.5012 107.309 22.5012C108.847 22.5012 110.125 22.765 111.144 23.2912L110.468 25.4637C109.515 24.9537 108.438 24.6987 107.233 24.6987C106.281 24.6987 105.537 24.93 105.003 25.39C104.553 25.8012 104.327 26.3025 104.327 26.8962C104.327 27.5537 104.584 28.0975 105.102 28.525C105.553 28.92 106.372 29.3475 107.561 29.8087C109.015 30.385 110.083 31.0587 110.77 31.8312C111.454 32.6012 111.796 33.565 111.796 34.715Z" fill="black"/>
<path d="M120.747 29.385H117.763V35.2087C117.763 36.69 118.288 37.43 119.342 37.43C119.826 37.43 120.227 37.3887 120.545 37.3062L120.62 39.33C120.086 39.5262 119.384 39.625 118.514 39.625C117.445 39.625 116.609 39.3037 116.006 38.6625C115.406 38.02 115.103 36.9425 115.103 35.4287V29.3825H113.326V27.3825H115.103V25.1862L117.763 24.3962V27.3825H120.747V29.385Z" fill="black"/>
<path d="M134.211 33.2837C134.211 35.1275 133.675 36.6412 132.606 37.825C131.484 39.0437 129.996 39.6512 128.141 39.6512C126.353 39.6512 124.929 39.0675 123.868 37.9C122.806 36.7325 122.275 35.2587 122.275 33.4825C122.275 31.6237 122.821 30.1012 123.917 28.9175C125.011 27.7325 126.486 27.14 128.341 27.14C130.129 27.14 131.568 27.7237 132.654 28.8925C133.693 30.0262 134.211 31.49 134.211 33.2837ZM131.402 33.37C131.402 32.2637 131.162 31.315 130.675 30.5237C130.108 29.5662 129.296 29.0887 128.245 29.0887C127.157 29.0887 126.33 29.5675 125.762 30.5237C125.276 31.3162 125.036 32.28 125.036 33.42C125.036 34.5262 125.276 35.475 125.762 36.265C126.348 37.2225 127.166 37.7 128.221 37.7C129.254 37.7 130.066 37.2125 130.651 36.24C131.15 35.4337 131.402 34.475 131.402 33.37Z" fill="black"/>
<path d="M143.011 29.7288C142.743 29.68 142.457 29.655 142.157 29.655C141.205 29.655 140.468 30.0088 139.95 30.7175C139.499 31.3425 139.273 32.1325 139.273 33.0863V39.38H136.567L136.593 31.1625C136.593 29.78 136.559 28.5213 136.491 27.3863H138.849L138.948 29.6813H139.023C139.309 28.8925 139.76 28.2575 140.377 27.7813C140.98 27.3525 141.632 27.1388 142.334 27.1388C142.584 27.1388 142.81 27.1563 143.011 27.1875V29.7288Z" fill="black"/>
<path d="M155.119 32.815C155.119 33.2925 155.087 33.695 155.02 34.0237H146.898C146.93 35.2087 147.322 36.115 148.076 36.74C148.761 37.2987 149.646 37.5787 150.733 37.5787C151.935 37.5787 153.032 37.39 154.019 37.0112L154.443 38.8612C153.29 39.3562 151.929 39.6025 150.358 39.6025C148.469 39.6025 146.985 39.055 145.906 37.9612C144.829 36.8675 144.29 35.3987 144.29 33.5562C144.29 31.7475 144.791 30.2412 145.796 29.04C146.847 27.7575 148.268 27.1162 150.056 27.1162C151.812 27.1162 153.142 27.7575 154.044 29.04C154.759 30.0587 155.119 31.3187 155.119 32.815ZM152.537 32.1237C152.555 31.3337 152.378 30.6512 152.011 30.075C151.543 29.3337 150.823 28.9637 149.854 28.9637C148.969 28.9637 148.249 29.325 147.699 30.05C147.248 30.6262 146.98 31.3175 146.898 32.1225H152.537V32.1237Z" fill="black"/>
</svg>
