<svg width="23" height="22" viewBox="0 0 23 22" fill="none" xmlns="http://www.w3.org/2000/svg">
<path d="M4.71874 11.0093C5.44227 11.0093 6.0288 10.4227 6.0288 9.69921C6.0288 8.97569 5.44227 8.38916 4.71874 8.38916C3.99522 8.38916 3.40869 8.97569 3.40869 9.69921C3.40869 10.4227 3.99522 11.0093 4.71874 11.0093Z" stroke="black" stroke-width="2" stroke-miterlimit="10"/>
<path d="M8.44257 9.6993C8.44257 7.64411 6.77649 5.97803 4.7213 5.97803C2.67176 5.97803 1.01623 7.61993 1.00011 9.66939C0.992424 10.6463 1.39033 11.5115 1.97012 12.205C2.62453 12.9878 4.72126 14.9229 4.72126 14.9229C4.72126 14.9229 6.73528 13.0538 7.46616 12.2118C8.05472 11.5339 8.44257 10.6678 8.44257 9.6993Z" stroke="black" stroke-width="2" stroke-miterlimit="10"/>
<path d="M4.72407 21.0004C5.66843 21.0004 6.43399 20.2348 6.43399 19.2905C6.43399 18.3461 5.66843 17.5806 4.72407 17.5806C3.77971 17.5806 3.01416 18.3461 3.01416 19.2905C3.01416 20.2348 3.77971 21.0004 4.72407 21.0004Z" stroke="black" stroke-width="2" stroke-miterlimit="10"/>
<path d="M18.0703 4.41983C19.0146 4.41983 19.7802 3.65427 19.7802 2.70991C19.7802 1.76555 19.0146 1 18.0703 1C17.1259 1 16.3604 1.76555 16.3604 2.70991C16.3604 3.65427 17.1259 4.41983 18.0703 4.41983Z" stroke="black" stroke-width="2" stroke-miterlimit="10"/>
<path d="M6.43555 19.2902H16.8792C19.1678 19.2902 21.0231 17.4349 21.0231 15.1462C21.0231 12.8576 19.1678 11.0023 16.8792 11.0023H14.8147C12.526 11.0023 10.6707 9.14694 10.6707 6.85827V6.8537C10.6707 4.56504 12.526 2.70972 14.8147 2.70972H16.3636" stroke="black" stroke-width="2" stroke-miterlimit="10"/>
</svg>
