<svg width="22" height="22" viewBox="0 0 22 22" fill="none" xmlns="http://www.w3.org/2000/svg">
<path d="M19.3053 17.6102C20.2413 17.6102 21.0002 18.369 21.0002 19.3051C21.0002 20.2412 20.2413 21 19.3053 21C18.3692 21 17.6104 20.2412 17.6104 19.3051C17.6104 18.369 18.3692 17.6102 19.3053 17.6102Z" stroke="black" stroke-width="2" stroke-miterlimit="10" stroke-linecap="round" stroke-linejoin="round"/>
<path d="M11.0001 17.6102C11.9362 17.6102 12.695 18.369 12.695 19.3051C12.695 20.2412 11.9362 21 11.0001 21C10.064 21 9.30518 20.2412 9.30518 19.3051C9.30518 18.369 10.064 17.6102 11.0001 17.6102Z" stroke="black" stroke-width="2" stroke-miterlimit="10" stroke-linecap="round" stroke-linejoin="round"/>
<path d="M2.69492 17.6102C3.63099 17.6102 4.38983 18.369 4.38983 19.3051C4.38983 20.2412 3.63099 21 2.69492 21C1.75884 21 1 20.2412 1 19.3051C1 18.369 1.75884 17.6102 2.69492 17.6102Z" stroke="black" stroke-width="2" stroke-miterlimit="10" stroke-linecap="round" stroke-linejoin="round"/>
<path d="M2.69492 1.00006C3.63099 1.00006 4.38983 1.7589 4.38983 2.69498C4.38983 3.63105 3.63099 4.38989 2.69492 4.38989C1.75884 4.38989 1 3.63105 1 2.69498C1 1.7589 1.75884 1.00006 2.69492 1.00006Z" stroke="black" stroke-width="2" stroke-miterlimit="10" stroke-linecap="round" stroke-linejoin="round"/>
<path d="M11.0001 1.00006C11.9362 1.00006 12.695 1.7589 12.695 2.69498C12.695 3.63105 11.9362 4.38989 11.0001 4.38989C10.064 4.38989 9.30518 3.63105 9.30518 2.69498C9.30518 1.7589 10.064 1.00006 11.0001 1.00006Z" stroke="black" stroke-width="2" stroke-miterlimit="10" stroke-linecap="round" stroke-linejoin="round"/>
<path d="M19.305 17.6101V12.8643C19.305 11.9283 18.5461 11.1694 17.6101 11.1694H2.69482V4.38977" stroke="black" stroke-width="2" stroke-miterlimit="10" stroke-linecap="round" stroke-linejoin="round"/>
<path d="M2.69482 11.1694V17.6101" stroke="black" stroke-width="2" stroke-miterlimit="10" stroke-linecap="round" stroke-linejoin="round"/>
<path d="M11 17.6101V4.38977" stroke="black" stroke-width="2" stroke-miterlimit="10" stroke-linecap="round" stroke-linejoin="round"/>
<path d="M19.3053 1.00006C20.2413 1.00006 21.0002 1.7589 21.0002 2.69498C21.0002 3.63105 20.2413 4.38989 19.3053 4.38989C18.3692 4.38989 17.6104 3.63105 17.6104 2.69498C17.6104 1.7589 18.3692 1.00006 19.3053 1.00006Z" stroke="black" stroke-width="2" stroke-miterlimit="10" stroke-linecap="round" stroke-linejoin="round"/>
<path d="M19.3052 7.77954V4.38971" stroke="black" stroke-width="2" stroke-miterlimit="10" stroke-linecap="round" stroke-linejoin="round"/>
</svg>
